<svg id="visual" viewBox="0 0 900 600" width="900" height="600" xmlns="http://www.w3.org/2000/svg" xmlns:xlink="http://www.w3.org/1999/xlink" version="1.1"><rect x="0" y="0" width="900" height="600" fill="#001220"></rect><path d="M0 334L25 345.3C50 356.7 100 379.3 150 380C200 380.7 250 359.3 300 368C350 376.7 400 415.3 450 434C500 452.7 550 451.3 600 430.8C650 410.3 700 370.7 750 358.7C800 346.7 850 362.3 875 370.2L900 378L900 601L875 601C850 601 800 601 750 601C700 601 650 601 600 601C550 601 500 601 450 601C400 601 350 601 300 601C250 601 200 601 150 601C100 601 50 601 25 601L0 601Z" fill="#0066ff"></path><path d="M0 457L25 454C50 451 100 445 150 437C200 429 250 419 300 424.5C350 430 400 451 450 465.7C500 480.3 550 488.7 600 476C650 463.3 700 429.7 750 427.8C800 426 850 456 875 471L900 486L900 601L875 601C850 601 800 601 750 601C700 601 650 601 600 601C550 601 500 601 450 601C400 601 350 601 300 601C250 601 200 601 150 601C100 601 50 601 25 601L0 601Z" fill="#007aff"></path><path d="M0 469L25 466.5C50 464 100 459 150 454.3C200 449.7 250 445.3 300 442C350 438.7 400 436.3 450 438.2C500 440 550 446 600 460.3C650 474.7 700 497.3 750 493.5C800 489.7 850 459.3 875 444.2L900 429L900 601L875 601C850 601 800 601 750 601C700 601 650 601 600 601C550 601 500 601 450 601C400 601 350 601 300 601C250 601 200 601 150 601C100 601 50 601 25 601L0 601Z" fill="#008cff"></path><path d="M0 523L25 526.7C50 530.3 100 537.7 150 542C200 546.3 250 547.7 300 539.2C350 530.7 400 512.3 450 509.3C500 506.3 550 518.7 600 521.3C650 524 700 517 750 507.7C800 498.3 850 486.7 875 480.8L900 475L900 601L875 601C850 601 800 601 750 601C700 601 650 601 600 601C550 601 500 601 450 601C400 601 350 601 300 601C250 601 200 601 150 601C100 601 50 601 25 601L0 601Z" fill="#2b9dfc"></path><path d="M0 518L25 519C50 520 100 522 150 531.5C200 541 250 558 300 564.8C350 571.7 400 568.3 450 566.5C500 564.7 550 564.3 600 557.7C650 551 700 538 750 539.3C800 540.7 850 556.3 875 564.2L900 572L900 601L875 601C850 601 800 601 750 601C700 601 650 601 600 601C550 601 500 601 450 601C400 601 350 601 300 601C250 601 200 601 150 601C100 601 50 601 25 601L0 601Z" fill="#4facf7"></path></svg>